<?xml version="1.0" encoding="utf-8"?>
<!-- Generator: Adobe Illustrator 25.2.1, SVG Export Plug-In . SVG Version: 6.00 Build 0)  -->
<svg version="1.1" id="Capa_1" xmlns="http://www.w3.org/2000/svg" xmlns:xlink="http://www.w3.org/1999/xlink" x="0px" y="0px"
	 viewBox="0 0 512 512" style="enable-background:new 0 0 512 512;" xml:space="preserve">
<style type="text/css">
	.st0{fill:#686868;}
</style>
<g>
	<path class="st0" d="M440.9,511.9c-10.3-10.4-20.6-20.8-30.9-31.2c-33-33-66-65.9-98.8-99c-3.3-3.3-5.5-4-9.9-1.5
		c-115.8,64.6-262,1.7-294.9-126.8c-2.4-9.5-4.1-19.2-5.2-28.9c-0.1-0.9,0.3-2.1-1.1-2.4c0-12.7,0-25.3,0-38c1.6-0.5,1-1.9,1.1-3
		c4.2-35.7,16.4-68.4,37.9-97.4c31.6-42.7,73.5-69.5,125.8-80c6.4-1.3,13.1-1.1,19.2-3.7c12,0,24,0,36,0c5.2,2.2,10.9,1.8,16.3,2.8
		c61.7,11.2,109.7,43.2,141.1,97.3c38.6,66.7,38.3,135,1.9,203c-1,1.9-2.3,3.3,0,5.6c44.3,44,88.4,88.1,132.6,132.2c0,0.3,0,0.7,0,1
		c-1.2,0-1.7,1-2.3,1.6c-22,22-44,44-66,66c-0.7,0.7-1.7,1.1-1.6,2.3C441.6,511.9,441.3,511.9,440.9,511.9z M203.1,30.1
		c-95.2-0.1-172.8,77.4-173,172.6c-0.2,95.1,77.2,172.9,172.5,173.2c95.2,0.3,173.3-77.6,173.3-172.9
		C375.9,107.8,298.3,30.2,203.1,30.1z M360.3,332c-1.7,0.2-2.3,1.6-3.1,2.5c-7,8.3-14.6,16-23,22.8c-2.7,2.2-2,3.3,0,5.3
		c34.8,34.7,69.5,69.4,104.2,104.2c2.1,2.1,3.2,2.4,5.4,0.1c7.5-7.8,15.2-15.4,22.9-23c2.1-2,2.5-3.1,0.2-5.4
		C432,403.8,397.2,368.9,362.4,334C361.7,333.3,360.9,332.7,360.3,332z"/>
</g>
</svg>
